<mxfile host="" modified="2021-01-16T20:23:01.077Z" agent="5.0 (Windows NT 6.2; Win64; x64) AppleWebKit/537.36 (KHTML, like Gecko) Chrome/84.0.4147.105 Safari/537.36" etag="yuRmx9ZHEBUSzwmE21cj" version="13.7.9" type="embed"><diagram id="7SXH7T6Oli7JSwVNmPwI" name="Page-1"><mxGraphModel dx="1727" dy="1103" grid="1" gridSize="10" guides="1" tooltips="1" connect="1" arrows="1" fold="1" page="1" pageScale="1" pageWidth="827" pageHeight="1169" math="0" shadow="0"><root><mxCell id="0"/><mxCell id="1" parent="0"/><mxCell id="MDXTBFEAtSUmrH2vsLVY-1" value="Actor" style="shape=umlActor;verticalLabelPosition=bottom;verticalAlign=top;html=1;outlineConnect=0;fillColor=#f5f5f5;strokeColor=#666666;fontColor=#333333;" parent="1" vertex="1"><mxGeometry x="340" y="10" width="60" height="100" as="geometry"/></mxCell><mxCell id="MDXTBFEAtSUmrH2vsLVY-2" value="&lt;font color=&quot;#000000&quot;&gt;Select Country Code&lt;/font&gt;" style="ellipse;whiteSpace=wrap;html=1;fillColor=#d5e8d4;strokeColor=#82b366;" parent="1" vertex="1"><mxGeometry x="310" y="260" width="120" height="80" as="geometry"/></mxCell><mxCell id="MDXTBFEAtSUmrH2vsLVY-3" value="&lt;font color=&quot;#000000&quot;&gt;Select City and press Search Button&lt;/font&gt;" style="ellipse;whiteSpace=wrap;html=1;fillColor=#d5e8d4;strokeColor=#82b366;" parent="1" vertex="1"><mxGeometry x="310" y="390" width="120" height="80" as="geometry"/></mxCell><mxCell id="MDXTBFEAtSUmrH2vsLVY-4" value="&lt;font color=&quot;#000000&quot;&gt;Working Network Connection?&lt;/font&gt;" style="rhombus;whiteSpace=wrap;html=1;fillColor=#e1d5e7;strokeColor=#9673a6;" parent="1" vertex="1"><mxGeometry x="295" y="500" width="150" height="150" as="geometry"/></mxCell><mxCell id="MDXTBFEAtSUmrH2vsLVY-5" value="&lt;font color=&quot;#000000&quot;&gt;Request Server for information&lt;/font&gt;" style="ellipse;whiteSpace=wrap;html=1;fillColor=#d5e8d4;strokeColor=#82b366;" parent="1" vertex="1"><mxGeometry x="310" y="710" width="120" height="80" as="geometry"/></mxCell><mxCell id="MDXTBFEAtSUmrH2vsLVY-7" value="&lt;font color=&quot;#000000&quot;&gt;Server response OK?&lt;/font&gt;" style="rhombus;whiteSpace=wrap;html=1;fillColor=#e1d5e7;strokeColor=#9673a6;" parent="1" vertex="1"><mxGeometry x="300" y="840" width="140" height="140" as="geometry"/></mxCell><mxCell id="MDXTBFEAtSUmrH2vsLVY-8" value="&lt;font color=&quot;#000000&quot;&gt;Display information&lt;/font&gt;" style="ellipse;whiteSpace=wrap;html=1;fillColor=#d5e8d4;strokeColor=#82b366;" parent="1" vertex="1"><mxGeometry x="310" y="1040" width="120" height="80" as="geometry"/></mxCell><mxCell id="MDXTBFEAtSUmrH2vsLVY-9" value="&lt;font color=&quot;#000000&quot;&gt;Pick another location&lt;/font&gt;" style="rhombus;whiteSpace=wrap;html=1;fillColor=#e1d5e7;strokeColor=#9673a6;" parent="1" vertex="1"><mxGeometry x="550" y="1024.5" width="110" height="111" as="geometry"/></mxCell><mxCell id="MDXTBFEAtSUmrH2vsLVY-11" value="&lt;font color=&quot;#000000&quot;&gt;Application terminated due to triggered Exceptions&lt;/font&gt;" style="shape=note;whiteSpace=wrap;html=1;backgroundOutline=1;darkOpacity=0.05;fillColor=#f8cecc;strokeColor=#b85450;" parent="1" vertex="1"><mxGeometry x="10" y="860" width="160" height="100" as="geometry"/></mxCell><mxCell id="MDXTBFEAtSUmrH2vsLVY-14" value="" style="endArrow=classic;html=1;exitX=0;exitY=0.5;exitDx=0;exitDy=0;entryX=0.463;entryY=0.02;entryDx=0;entryDy=0;entryPerimeter=0;" parent="1" source="MDXTBFEAtSUmrH2vsLVY-4" target="MDXTBFEAtSUmrH2vsLVY-11" edge="1"><mxGeometry width="50" height="50" relative="1" as="geometry"><mxPoint x="120" y="610" as="sourcePoint"/><mxPoint x="170" y="560" as="targetPoint"/></mxGeometry></mxCell><mxCell id="MDXTBFEAtSUmrH2vsLVY-15" value="NO" style="edgeLabel;html=1;align=center;verticalAlign=middle;resizable=0;points=[];" parent="MDXTBFEAtSUmrH2vsLVY-14" vertex="1" connectable="0"><mxGeometry x="-0.0913" y="1" relative="1" as="geometry"><mxPoint as="offset"/></mxGeometry></mxCell><mxCell id="MDXTBFEAtSUmrH2vsLVY-16" value="" style="endArrow=classic;html=1;exitX=0;exitY=0.5;exitDx=0;exitDy=0;" parent="1" source="MDXTBFEAtSUmrH2vsLVY-7" target="MDXTBFEAtSUmrH2vsLVY-11" edge="1"><mxGeometry width="50" height="50" relative="1" as="geometry"><mxPoint x="210" y="1030" as="sourcePoint"/><mxPoint x="260" y="980" as="targetPoint"/></mxGeometry></mxCell><mxCell id="MDXTBFEAtSUmrH2vsLVY-17" value="NO" style="edgeLabel;html=1;align=center;verticalAlign=middle;resizable=0;points=[];" parent="MDXTBFEAtSUmrH2vsLVY-16" vertex="1" connectable="0"><mxGeometry x="0.365" y="1" relative="1" as="geometry"><mxPoint as="offset"/></mxGeometry></mxCell><mxCell id="MDXTBFEAtSUmrH2vsLVY-19" value="&lt;font color=&quot;#000000&quot;&gt;Launch Application&lt;/font&gt;" style="ellipse;whiteSpace=wrap;html=1;fillColor=#d5e8d4;strokeColor=#82b366;" parent="1" vertex="1"><mxGeometry x="310" y="140" width="120" height="80" as="geometry"/></mxCell><mxCell id="MDXTBFEAtSUmrH2vsLVY-20" value="" style="endArrow=classic;html=1;exitX=0.5;exitY=0.5;exitDx=0;exitDy=0;exitPerimeter=0;entryX=0.5;entryY=0;entryDx=0;entryDy=0;" parent="1" source="MDXTBFEAtSUmrH2vsLVY-1" target="MDXTBFEAtSUmrH2vsLVY-19" edge="1"><mxGeometry width="50" height="50" relative="1" as="geometry"><mxPoint x="160" y="150" as="sourcePoint"/><mxPoint x="210" y="100" as="targetPoint"/></mxGeometry></mxCell><mxCell id="MDXTBFEAtSUmrH2vsLVY-21" value="" style="endArrow=classic;html=1;exitX=0.5;exitY=1;exitDx=0;exitDy=0;entryX=0.5;entryY=0;entryDx=0;entryDy=0;" parent="1" source="MDXTBFEAtSUmrH2vsLVY-19" target="MDXTBFEAtSUmrH2vsLVY-2" edge="1"><mxGeometry width="50" height="50" relative="1" as="geometry"><mxPoint x="220" y="240" as="sourcePoint"/><mxPoint x="270" y="190" as="targetPoint"/></mxGeometry></mxCell><mxCell id="MDXTBFEAtSUmrH2vsLVY-22" value="" style="endArrow=classic;html=1;exitX=0.5;exitY=1;exitDx=0;exitDy=0;entryX=0.5;entryY=0;entryDx=0;entryDy=0;" parent="1" source="MDXTBFEAtSUmrH2vsLVY-2" target="MDXTBFEAtSUmrH2vsLVY-3" edge="1"><mxGeometry width="50" height="50" relative="1" as="geometry"><mxPoint x="230" y="390" as="sourcePoint"/><mxPoint x="280" y="340" as="targetPoint"/></mxGeometry></mxCell><mxCell id="MDXTBFEAtSUmrH2vsLVY-23" value="" style="endArrow=classic;html=1;exitX=0.5;exitY=1;exitDx=0;exitDy=0;entryX=0.5;entryY=0;entryDx=0;entryDy=0;" parent="1" source="MDXTBFEAtSUmrH2vsLVY-3" target="MDXTBFEAtSUmrH2vsLVY-4" edge="1"><mxGeometry width="50" height="50" relative="1" as="geometry"><mxPoint x="210" y="470" as="sourcePoint"/><mxPoint x="260" y="420" as="targetPoint"/></mxGeometry></mxCell><mxCell id="MDXTBFEAtSUmrH2vsLVY-24" value="" style="endArrow=classic;html=1;exitX=0.5;exitY=1;exitDx=0;exitDy=0;entryX=0.5;entryY=0;entryDx=0;entryDy=0;" parent="1" source="MDXTBFEAtSUmrH2vsLVY-4" target="MDXTBFEAtSUmrH2vsLVY-5" edge="1"><mxGeometry width="50" height="50" relative="1" as="geometry"><mxPoint x="480" y="660" as="sourcePoint"/><mxPoint x="530" y="610" as="targetPoint"/></mxGeometry></mxCell><mxCell id="MDXTBFEAtSUmrH2vsLVY-36" value="YES" style="edgeLabel;html=1;align=center;verticalAlign=middle;resizable=0;points=[];" parent="MDXTBFEAtSUmrH2vsLVY-24" vertex="1" connectable="0"><mxGeometry x="-0.6" relative="1" as="geometry"><mxPoint as="offset"/></mxGeometry></mxCell><mxCell id="MDXTBFEAtSUmrH2vsLVY-25" value="" style="endArrow=classic;html=1;exitX=0.5;exitY=1;exitDx=0;exitDy=0;entryX=0.5;entryY=0;entryDx=0;entryDy=0;" parent="1" source="MDXTBFEAtSUmrH2vsLVY-5" target="MDXTBFEAtSUmrH2vsLVY-7" edge="1"><mxGeometry width="50" height="50" relative="1" as="geometry"><mxPoint x="650" y="800" as="sourcePoint"/><mxPoint x="700" y="750" as="targetPoint"/></mxGeometry></mxCell><mxCell id="MDXTBFEAtSUmrH2vsLVY-26" value="" style="endArrow=classic;html=1;entryX=0.5;entryY=0;entryDx=0;entryDy=0;" parent="1" source="MDXTBFEAtSUmrH2vsLVY-7" target="MDXTBFEAtSUmrH2vsLVY-8" edge="1"><mxGeometry width="50" height="50" relative="1" as="geometry"><mxPoint x="180" y="1040" as="sourcePoint"/><mxPoint x="230" y="990" as="targetPoint"/></mxGeometry></mxCell><mxCell id="MDXTBFEAtSUmrH2vsLVY-38" value="YES" style="edgeLabel;html=1;align=center;verticalAlign=middle;resizable=0;points=[];" parent="MDXTBFEAtSUmrH2vsLVY-26" vertex="1" connectable="0"><mxGeometry x="-0.4667" relative="1" as="geometry"><mxPoint as="offset"/></mxGeometry></mxCell><mxCell id="MDXTBFEAtSUmrH2vsLVY-27" value="" style="endArrow=classic;html=1;exitX=1;exitY=0.5;exitDx=0;exitDy=0;" parent="1" source="MDXTBFEAtSUmrH2vsLVY-8" target="MDXTBFEAtSUmrH2vsLVY-9" edge="1"><mxGeometry width="50" height="50" relative="1" as="geometry"><mxPoint x="230" y="1120" as="sourcePoint"/><mxPoint x="280" y="1070" as="targetPoint"/></mxGeometry></mxCell><mxCell id="MDXTBFEAtSUmrH2vsLVY-28" value="&lt;font color=&quot;#000000&quot;&gt;Close Application&lt;/font&gt;" style="ellipse;whiteSpace=wrap;html=1;fillColor=#d5e8d4;strokeColor=#82b366;" parent="1" vertex="1"><mxGeometry x="70" y="1040" width="120" height="80" as="geometry"/></mxCell><mxCell id="MDXTBFEAtSUmrH2vsLVY-30" value="" style="endArrow=classic;html=1;exitX=0;exitY=0.5;exitDx=0;exitDy=0;entryX=1;entryY=0.5;entryDx=0;entryDy=0;" parent="1" source="MDXTBFEAtSUmrH2vsLVY-8" target="MDXTBFEAtSUmrH2vsLVY-28" edge="1"><mxGeometry width="50" height="50" relative="1" as="geometry"><mxPoint x="230" y="1050" as="sourcePoint"/><mxPoint x="280" y="1000" as="targetPoint"/></mxGeometry></mxCell><mxCell id="MDXTBFEAtSUmrH2vsLVY-35" value="" style="curved=1;endArrow=classic;html=1;exitX=0.5;exitY=0;exitDx=0;exitDy=0;entryX=1;entryY=0.5;entryDx=0;entryDy=0;" parent="1" source="MDXTBFEAtSUmrH2vsLVY-9" target="MDXTBFEAtSUmrH2vsLVY-2" edge="1"><mxGeometry width="50" height="50" relative="1" as="geometry"><mxPoint x="640" y="790" as="sourcePoint"/><mxPoint x="690" y="740" as="targetPoint"/><Array as="points"><mxPoint x="690" y="790"/><mxPoint x="690" y="260"/></Array></mxGeometry></mxCell><mxCell id="2" value="Actor&lt;br&gt;" style="text;html=1;align=center;verticalAlign=middle;resizable=0;points=[];autosize=1;" vertex="1" parent="1"><mxGeometry x="445" y="50" width="40" height="20" as="geometry"/></mxCell></root></mxGraphModel></diagram></mxfile>